<?xml version="1.0" encoding="UTF-8"?>
<!-- Generated by Pixelmator Pro 3.7.1 -->
<svg width="4096" height="4096" viewBox="0 0 4096 4096" xmlns="http://www.w3.org/2000/svg">
    <g id="Icon">
        <filter id="filter1" x="0" y="0" width="4096" height="4096" filterUnits="userSpaceOnUse" primitiveUnits="userSpaceOnUse" color-interpolation-filters="sRGB">
            <feGaussianBlur stdDeviation="106.7094"/>
            <feOffset dx="-0" dy="53.3547" result="offsetblur"/>
            <feFlood flood-color="#221133" flood-opacity="0.5"/>
            <feComposite in2="offsetblur" operator="in"/>
            <feMerge>
                <feMergeNode/>
                <feMergeNode in="SourceGraphic"/>
            </feMerge>
        </filter>
        <g id="BG" filter="url(#filter1)">
            <path id="path1" fill="#221133" fill-rule="evenodd" stroke="none" d="M -2.091496 3030.742188 C -2.091496 3620.082031 475.662781 4097.836426 1065.002441 4097.836426 L 3028.455322 4097.836426 C 3617.795166 4097.836426 4095.549561 3620.082031 4095.549561 3030.742188 L 4095.549561 1067.289307 C 4095.549561 477.949463 3617.795166 0.195068 3028.455322 0.195068 L 1065.002441 0.195068 C 475.662781 0.195068 -2.091496 477.949463 -2.091496 1067.289307 Z"/>
            <path id="path2" fill="#ddccee" fill-rule="evenodd" stroke="none" d="M 1065.002441 4097.836426 C 475.662781 4097.836426 -2.091496 3620.082031 -2.091496 3030.742188 L -2.091496 1067.289307 C -2.091496 477.949463 475.662781 0.195068 1065.002441 0.195068 L 3028.455322 0.195068 C 3617.795166 0.195068 4095.549561 477.949463 4095.549561 1067.289307 L 4095.549561 3030.742188 C 4095.549561 3620.082031 3617.795166 4097.836426 3028.455322 4097.836426 L 1065.002441 4097.836426 Z M 157.97261 3030.742188 L 157.97261 1067.289307 C 157.97261 566.350403 564.063721 160.259171 1065.002441 160.259171 L 3028.455322 160.259171 C 3529.394287 160.259171 3935.485352 566.350403 3935.485352 1067.289307 L 3935.485352 3030.742188 C 3935.485352 3531.681152 3529.394287 3937.772217 3028.455322 3937.772217 L 1065.002441 3937.772217 C 564.063721 3937.772217 157.97261 3531.681152 157.97261 3030.742188 Z"/>
        </g>
        <path id="Right-Triangle-copy" fill="#ddccee" fill-rule="evenodd" stroke="none" d="M 2043.671875 1877.540039 L 684.4599 3236.751953 L 3411.248047 3236.751953 L 2052.036133 1877.540039 L 3411.248047 1877.540039 L 2047.854004 514.145996 L 684.4599 1877.540039 L 2043.671875 1877.540039 Z"/>
    </g>
</svg>
